<svg width="38" height="38" viewBox="0 0 38 38" fill="none" xmlns="http://www.w3.org/2000/svg">
<rect width="38" height="38" rx="3" fill="#021886"/>
<path d="M20 7C20 5.34315 21.3431 4 23 4H38V15H23C21.3431 15 20 13.6569 20 12V7Z" fill="#1FCC33"/>
<path d="M3 7C3 5.34315 4.34315 4 6 4H14C15.6569 4 17 5.34315 17 7V12C17 13.6569 15.6569 15 14 15H6C4.34315 15 3 13.6569 3 12V7Z" fill="#1FCC33"/>
<path d="M35 30C35 31.6569 33.6569 33 32 33L0 33L9.6165e-07 22L32 22C33.6569 22 35 23.3431 35 25L35 30Z" fill="#1FCC33"/>
</svg>
